<svg xmlns="http://www.w3.org/2000/svg" xmlns:xlink="http://www.w3.org/1999/xlink" viewBox="0 0 2000 2000" width="2000" height="2000" preserveAspectRatio="xMidYMid meet" style="width: 100%; height: 100%; transform: translate3d(0px, 0px, 0px); content-visibility: visible;"><defs><clipPath id="__lottie_element_390"><rect width="2000" height="2000" x="0" y="0"></rect></clipPath></defs><g clip-path="url(#__lottie_element_390)"><g transform="matrix(0.9997946619987488,0.020263204351067543,-0.020263204351067543,0.9997946619987488,443.95880126953125,286.4719543457031)" opacity="1" style="display: block;"><g opacity="1" transform="matrix(1,0,0,1,535.89599609375,480.9389953613281)"><path fill="rgb(255,255,255)" fill-opacity="1" d=" M298.7820129394531,296.15301513671875 C298.7820129394531,296.15301513671875 -120.14800262451172,411.9440002441406 -120.14800262451172,411.9440002441406 C-248.46499633789062,447.4110107421875 -381.2380065917969,372.1409912109375 -416.7040100097656,243.82400512695312 C-416.7040100097656,243.82400512695312 -437.77801513671875,167.5800018310547 -437.77801513671875,167.5800018310547 C-502.3680114746094,-66.1050033569336 -365.2900085449219,-307.9049987792969 -131.60499572753906,-372.4949951171875 C-131.60499572753906,-372.4949951171875 -94.24600219726562,-382.8210144042969 -94.24600219726562,-382.8210144042969 C139.43800354003906,-447.4110107421875 381.2380065917969,-310.3330078125 445.8290100097656,-76.64800262451172 C445.8290100097656,-76.64800262451172 466.9020080566406,-0.40400001406669617 466.9020080566406,-0.40400001406669617 C502.3689880371094,127.91300201416016 427.0989990234375,260.6860046386719 298.7820129394531,296.15301513671875z"></path><path stroke-linecap="butt" stroke-linejoin="miter" fill-opacity="0" stroke-miterlimit="10" stroke="rgb(19,6,57)" stroke-opacity="1" stroke-width="13.411" d=" M298.7820129394531,296.15301513671875 C298.7820129394531,296.15301513671875 -120.14800262451172,411.9440002441406 -120.14800262451172,411.9440002441406 C-248.46499633789062,447.4110107421875 -381.2380065917969,372.1409912109375 -416.7040100097656,243.82400512695312 C-416.7040100097656,243.82400512695312 -437.77801513671875,167.5800018310547 -437.77801513671875,167.5800018310547 C-502.3680114746094,-66.1050033569336 -365.2900085449219,-307.9049987792969 -131.60499572753906,-372.4949951171875 C-131.60499572753906,-372.4949951171875 -94.24600219726562,-382.8210144042969 -94.24600219726562,-382.8210144042969 C139.43800354003906,-447.4110107421875 381.2380065917969,-310.3330078125 445.8290100097656,-76.64800262451172 C445.8290100097656,-76.64800262451172 466.9020080566406,-0.40400001406669617 466.9020080566406,-0.40400001406669617 C502.3689880371094,127.91300201416016 427.0989990234375,260.6860046386719 298.7820129394531,296.15301513671875z"></path></g></g><g transform="matrix(0.9997946619987488,0.020263204351067543,-0.020263204351067543,0.9997946619987488,609.9747314453125,515.31689453125)" opacity="1" style="display: block;"><g opacity="1" transform="matrix(1,0,0,1,363.4960021972656,310.98199462890625)"><path fill="rgb(19,6,57)" fill-opacity="1" d=" M251.5590057373047,183.78500366210938 C251.5590057373047,183.78500366210938 -137.33700561523438,291.2749938964844 -137.33700561523438,291.2749938964844 C-207.73199462890625,310.73199462890625 -280.5690002441406,269.4389953613281 -300.0260009765625,199.04600524902344 C-300.0260009765625,199.04600524902344 -314.6659851074219,146.08200073242188 -314.6659851074219,146.08200073242188 C-363.2460021972656,-29.68000030517578 -260.1449890136719,-211.5449981689453 -84.38300323486328,-260.1260070800781 C-84.38300323486328,-260.1260070800781 -77.05799865722656,-262.1499938964844 -77.05799865722656,-262.1499938964844 C98.7040023803711,-310.7309875488281 280.5690002441406,-207.6300048828125 329.14898681640625,-31.868000030517578 C329.14898681640625,-31.868000030517578 343.7879943847656,21.09600067138672 343.7879943847656,21.09600067138672 C363.2460021972656,91.48999786376953 321.9530029296875,164.3280029296875 251.5590057373047,183.78500366210938z"></path></g></g><g transform="matrix(0.9997946619987488,0.020263204351067543,-0.020263204351067543,0.9997946619987488,749.9797973632812,1183.1630859375)" opacity="1" style="display: block;"><g opacity="1" transform="matrix(1,0,0,1,175.06399536132812,134.98399353027344)"><path fill="rgb(255,255,255)" fill-opacity="1" d=" M61.99399948120117,-7.309999942779541 C58.64099884033203,21.18899917602539 51.332000732421875,49.41999816894531 41.071998596191406,75.77300262451172 C37.652000427246094,84.625 33.494998931884766,93.14099884033203 28.934999465942383,101.45700073242188 C22.631999969482422,81.74199676513672 8.684000015258789,64.57499694824219 -9.48900032043457,54.650001525878906 C-12.774999618530273,52.90700149536133 -16.128000259399414,51.297000885009766 -19.61400032043457,50.09000015258789 C-33.83100128173828,44.590999603271484 -49.65599822998047,43.31800079345703 -64.6760025024414,46.33599853515625 C-50.595001220703125,8.85099983215332 -33.0260009765625,-26.621999740600586 -10.092000007629395,-59.74800109863281 C-5.666999816894531,-66.18599700927734 -0.972000002861023,-72.55599975585938 4.392000198364258,-78.25599670410156 C7.677999973297119,-81.74299621582031 11.232000350952148,-84.8949966430664 15.187999725341797,-87.71099853515625 C24.375,-94.28299713134766 41.27299880981445,-101.45700073242188 51.39899826049805,-93.947998046875 C61.525001525878906,-86.43699645996094 63.268001556396484,-68.86900329589844 63.87099838256836,-57.402000427246094 C64.6760025024414,-40.8380012512207 64.00599670410156,-24.006999969482422 61.99399948120117,-7.309999942779541z"></path><path stroke-linecap="round" stroke-linejoin="round" fill-opacity="0" stroke="rgb(19,6,57)" stroke-opacity="1" stroke-width="13.411" d=" M61.99399948120117,-7.309999942779541 C58.64099884033203,21.18899917602539 51.332000732421875,49.41999816894531 41.071998596191406,75.77300262451172 C37.652000427246094,84.625 33.494998931884766,93.14099884033203 28.934999465942383,101.45700073242188 C22.631999969482422,81.74199676513672 8.684000015258789,64.57499694824219 -9.48900032043457,54.650001525878906 C-12.774999618530273,52.90700149536133 -16.128000259399414,51.297000885009766 -19.61400032043457,50.09000015258789 C-33.83100128173828,44.590999603271484 -49.65599822998047,43.31800079345703 -64.6760025024414,46.33599853515625 C-50.595001220703125,8.85099983215332 -33.0260009765625,-26.621999740600586 -10.092000007629395,-59.74800109863281 C-5.666999816894531,-66.18599700927734 -0.972000002861023,-72.55599975585938 4.392000198364258,-78.25599670410156 C7.677999973297119,-81.74299621582031 11.232000350952148,-84.8949966430664 15.187999725341797,-87.71099853515625 C24.375,-94.28299713134766 41.27299880981445,-101.45700073242188 51.39899826049805,-93.947998046875 C61.525001525878906,-86.43699645996094 63.268001556396484,-68.86900329589844 63.87099838256836,-57.402000427246094 C64.6760025024414,-40.8380012512207 64.00599670410156,-24.006999969482422 61.99399948120117,-7.309999942779541z"></path></g><g opacity="1" transform="matrix(1,0,0,1,118.76300048828125,255.9969940185547)"><path fill="rgb(19,6,57)" fill-opacity="1" d=" M36.71799850463867,-70.9540023803711 C40.17599868774414,-69.70800018310547 43.553001403808594,-68.13600158691406 46.81800079345703,-66.38400268554688 C64.98400115966797,-56.439998626708984 78.95700073242188,-39.270999908447266 85.23500061035156,-19.56100082397461 C69.2300033569336,9.800000190734863 47.64699935913086,36.65700149536133 30.01300048828125,64.61900329589844 C27.92099952697754,67.94499969482422 25.780000686645508,71.26799774169922 22.768999099731445,73.74099731445312 C19.753000259399414,76.26200103759766 15.649999618530273,77.72100067138672 11.932000160217285,76.68900299072266 C8.166999816894531,75.6510009765625 7.191999912261963,74.41000366210938 6.763000011444092,70.50199890136719 C5.698999881744385,60.42100143432617 6.761000156402588,50.07099914550781 9.8100004196167,40.39400100708008 C14.152000427246094,26.78700065612793 34.13999938964844,16.19300079345703 31.816999435424805,-0.02500000037252903 C30.375,-10.142000198364258 12.07699966430664,-7.546999931335449 5.303999900817871,-4.199999809265137 C5.053999900817871,-4.081999778747559 4.85099983215332,-3.9579999446868896 4.6479997634887695,-3.8350000381469727 C-4.758999824523926,1.0670000314712524 -11.701000213623047,9.550000190734863 -19.562000274658203,16.702999114990234 C-21.76099967956543,18.683000564575195 -24.00200080871582,20.611000061035156 -26.367000579833984,22.336999893188477 C-36.07099914550781,29.78499984741211 -47.08300018310547,35.48500061035156 -58.74700164794922,39.06800079345703 C-64.55799865722656,40.88399887084961 -70.83899688720703,42.12900161743164 -76.69300079345703,40.505001068115234 C-82.54900360107422,38.880001068115234 -85.23500061035156,32.696998596191406 -84.87799835205078,26.62299919128418 C-52.492000579833984,5.454999923706055 -25.511999130249023,-26.79199981689453 -12.517999649047852,-63.41899871826172 C-11.192000389099121,-67.2020034790039 -9.819999694824219,-70.98200225830078 -8.355999946594238,-74.70500183105469 C6.640999794006348,-77.72200012207031 22.45599937438965,-76.41000366210938 36.71799850463867,-70.9540023803711z"></path><path stroke-linecap="butt" stroke-linejoin="miter" fill-opacity="0" stroke-miterlimit="10" stroke="rgb(19,6,57)" stroke-opacity="1" stroke-width="13.411" d=" M36.71799850463867,-70.9540023803711 C40.17599868774414,-69.70800018310547 43.553001403808594,-68.13600158691406 46.81800079345703,-66.38400268554688 C64.98400115966797,-56.439998626708984 78.95700073242188,-39.270999908447266 85.23500061035156,-19.56100082397461 C69.2300033569336,9.800000190734863 47.64699935913086,36.65700149536133 30.01300048828125,64.61900329589844 C27.92099952697754,67.94499969482422 25.780000686645508,71.26799774169922 22.768999099731445,73.74099731445312 C19.753000259399414,76.26200103759766 15.649999618530273,77.72100067138672 11.932000160217285,76.68900299072266 C8.166999816894531,75.6510009765625 7.191999912261963,74.41000366210938 6.763000011444092,70.50199890136719 C5.698999881744385,60.42100143432617 6.761000156402588,50.07099914550781 9.8100004196167,40.39400100708008 C14.152000427246094,26.78700065612793 34.13999938964844,16.19300079345703 31.816999435424805,-0.02500000037252903 C30.375,-10.142000198364258 12.07699966430664,-7.546999931335449 5.303999900817871,-4.199999809265137 C5.053999900817871,-4.081999778747559 4.85099983215332,-3.9579999446868896 4.6479997634887695,-3.8350000381469727 C-4.758999824523926,1.0670000314712524 -11.701000213623047,9.550000190734863 -19.562000274658203,16.702999114990234 C-21.76099967956543,18.683000564575195 -24.00200080871582,20.611000061035156 -26.367000579833984,22.336999893188477 C-36.07099914550781,29.78499984741211 -47.08300018310547,35.48500061035156 -58.74700164794922,39.06800079345703 C-64.55799865722656,40.88399887084961 -70.83899688720703,42.12900161743164 -76.69300079345703,40.505001068115234 C-82.54900360107422,38.880001068115234 -85.23500061035156,32.696998596191406 -84.87799835205078,26.62299919128418 C-52.492000579833984,5.454999923706055 -25.511999130249023,-26.79199981689453 -12.517999649047852,-63.41899871826172 C-11.192000389099121,-67.2020034790039 -9.819999694824219,-70.98200225830078 -8.355999946594238,-74.70500183105469 C6.640999794006348,-77.72200012207031 22.45599937438965,-76.41000366210938 36.71799850463867,-70.9540023803711z"></path></g><g opacity="1" transform="matrix(1,0,0,1,107.51200103759766,283.9119873046875)"><path fill="rgb(19,6,57)" fill-opacity="1" d=" M15.89900016784668,-31.75 C11.967000007629395,-14.043999671936035 8.031000137329102,3.7079999446868896 4.099999904632568,21.413999557495117 C3.180000066757202,25.429000854492188 1.6720000505447388,30.10300064086914 -2.2909998893737793,31.097999572753906 C-4.885000228881836,31.75 -7.715000152587891,30.422000885009766 -9.425999641418457,28.39299964904785 C-11.184000015258789,26.358999252319336 -12.067000389099121,23.69499969482422 -12.772000312805176,21.143999099731445 C-15.119999885559082,12.46500015258789 -15.89799976348877,3.367000102996826 -15.116000175476074,-5.577000141143799 C-12.75100040435791,-7.302999973297119 -10.510000228881836,-9.230999946594238 -8.310999870300293,-11.211000442504883 C-0.44999998807907104,-18.36400032043457 6.492000102996826,-26.849000930786133 15.89900016784668,-31.75z"></path><path stroke-linecap="butt" stroke-linejoin="miter" fill-opacity="0" stroke-miterlimit="10" stroke="rgb(19,6,57)" stroke-opacity="1" stroke-width="13.411" d=" M15.89900016784668,-31.75 C11.967000007629395,-14.043999671936035 8.031000137329102,3.7079999446868896 4.099999904632568,21.413999557495117 C3.180000066757202,25.429000854492188 1.6720000505447388,30.10300064086914 -2.2909998893737793,31.097999572753906 C-4.885000228881836,31.75 -7.715000152587891,30.422000885009766 -9.425999641418457,28.39299964904785 C-11.184000015258789,26.358999252319336 -12.067000389099121,23.69499969482422 -12.772000312805176,21.143999099731445 C-15.119999885559082,12.46500015258789 -15.89799976348877,3.367000102996826 -15.116000175476074,-5.577000141143799 C-12.75100040435791,-7.302999973297119 -10.510000228881836,-9.230999946594238 -8.310999870300293,-11.211000442504883 C-0.44999998807907104,-18.36400032043457 6.492000102996826,-26.849000930786133 15.89900016784668,-31.75z"></path></g></g><g transform="matrix(1,0,0,1,913.7620239257812,1434.0360107421875)" opacity="1" style="display: block;"><g opacity="1" transform="matrix(1,0,0,1,132.20199584960938,146.5850067138672)"><path fill="rgb(255,255,255)" fill-opacity="1" d=" M58.07099914550781,106.21800231933594 C45.933998107910156,108.49700164794922 33.595001220703125,110.17400360107422 21.055999755859375,111.31500244140625 C10.79699993133545,112.31999969482422 0.4690000116825104,112.85700225830078 -9.923999786376953,113.05799865722656 C-10.326000213623047,55.321998596191406 -27.827999114990234,-5.364999771118164 -59.88199996948242,-60.08300018310547 C-56.52899932861328,-66.5199966430664 -52.90800094604492,-72.75700378417969 -49.084999084472656,-78.79199981689453 C-45.93299865722656,-83.75499725341797 -42.513999938964844,-88.71700286865234 -38.69200134277344,-93.2760009765625 C-34.534000396728516,-98.10399627685547 -29.70599937438965,-102.3290023803711 -24.073999404907227,-105.5479965209961 C-13.142999649047852,-111.71700286865234 1.9450000524520874,-113.05799865722656 14.88599967956543,-105.7490005493164 C30.577999114990234,-96.96499633789062 38.49100112915039,-78.65799713134766 43.319000244140625,-62.1619987487793 C59.88199996948242,-5.297999858856201 59.61399841308594,50.42599868774414 58.07099914550781,106.21800231933594z"></path><path stroke-linecap="butt" stroke-linejoin="miter" fill-opacity="0" stroke-miterlimit="10" stroke="rgb(19,6,57)" stroke-opacity="1" stroke-width="13.411" d=" M58.07099914550781,106.21800231933594 C45.933998107910156,108.49700164794922 33.595001220703125,110.17400360107422 21.055999755859375,111.31500244140625 C10.79699993133545,112.31999969482422 0.4690000116825104,112.85700225830078 -9.923999786376953,113.05799865722656 C-10.326000213623047,55.321998596191406 -27.827999114990234,-5.364999771118164 -59.88199996948242,-60.08300018310547 C-56.52899932861328,-66.5199966430664 -52.90800094604492,-72.75700378417969 -49.084999084472656,-78.79199981689453 C-45.93299865722656,-83.75499725341797 -42.513999938964844,-88.71700286865234 -38.69200134277344,-93.2760009765625 C-34.534000396728516,-98.10399627685547 -29.70599937438965,-102.3290023803711 -24.073999404907227,-105.5479965209961 C-13.142999649047852,-111.71700286865234 1.9450000524520874,-113.05799865722656 14.88599967956543,-105.7490005493164 C30.577999114990234,-96.96499633789062 38.49100112915039,-78.65799713134766 43.319000244140625,-62.1619987487793 C59.88199996948242,-5.297999858856201 59.61399841308594,50.42599868774414 58.07099914550781,106.21800231933594z"></path></g><g opacity="1" transform="matrix(1,0,0,1,77.91799926757812,173.38499450683594)"><path fill="rgb(19,6,57)" fill-opacity="1" d=" M-5.570000171661377,-86.85099792480469 C26.43899917602539,-32.172000885009766 43.987998962402344,28.516000747680664 44.39099884033203,86.2490005493164 C15.21500015258789,86.8499984741211 -14.583000183105469,84.49700164794922 -44.39099884033203,79.23899841308594 C-44.34400177001953,21.5049991607666 -31.083999633789062,-38.33000183105469 -5.570000171661377,-86.85099792480469z"></path><path stroke-linecap="butt" stroke-linejoin="miter" fill-opacity="0" stroke-miterlimit="10" stroke="rgb(19,6,57)" stroke-opacity="1" stroke-width="13.411" d=" M-5.570000171661377,-86.85099792480469 C26.43899917602539,-32.172000885009766 43.987998962402344,28.516000747680664 44.39099884033203,86.2490005493164 C15.21500015258789,86.8499984741211 -14.583000183105469,84.49700164794922 -44.39099884033203,79.23899841308594 C-44.34400177001953,21.5049991607666 -31.083999633789062,-38.33000183105469 -5.570000171661377,-86.85099792480469z"></path></g></g><g transform="matrix(0.9997946619987488,0.020263204351067543,-0.020263204351067543,0.9997946619987488,897.4153442382812,1109.17236328125)" opacity="1" style="display: block;"><g opacity="1" transform="matrix(1,0,0,1,258.8450012207031,223.36099243164062)"><path fill="rgb(19,6,57)" fill-opacity="1" d=" M12.225000381469727,-164.4929962158203 C86.78800201416016,-130.5279998779297 142.1540069580078,-46.486000061035156 130.98899841308594,29.37299919128418 C125.1449966430664,69.44400024414062 104.3479995727539,103.56600189208984 76.51200103759766,128.83099365234375 C38.198001861572266,163.56900024414062 -13.02400016784668,189.83399963378906 -72.07599639892578,176.35800170898438 C-79.23600006103516,174.74600219726562 -86.36199951171875,172.55099487304688 -93.35399627685547,169.8209991455078 C-56.56700134277344,178.22000122070312 -18.658000946044922,168.04100036621094 6.927999973297119,145.2050018310547 C41.02000045776367,114.79199981689453 55.8129997253418,66.0250015258789 59.03499984741211,16.128000259399414 C61.29600143432617,-18.88599967956543 57.62200164794922,-57.457000732421875 36.95199966430664,-90.25499725341797 C11.210000038146973,-131.03399658203125 -36.36600112915039,-154.3730010986328 -79.99600219726562,-159.3249969482422 C-101.27200317382812,-161.77499389648438 -121.93199920654297,-160.57899475097656 -142.1540069580078,-157.48399353027344 C-99.2750015258789,-183.70799255371094 -43.41699981689453,-189.83399963378906 12.225000381469727,-164.4929962158203z"></path><path stroke-linecap="round" stroke-linejoin="round" fill-opacity="0" stroke="rgb(19,6,57)" stroke-opacity="1" stroke-width="13.411" d=" M12.225000381469727,-164.4929962158203 C86.78800201416016,-130.5279998779297 142.1540069580078,-46.486000061035156 130.98899841308594,29.37299919128418 C125.1449966430664,69.44400024414062 104.3479995727539,103.56600189208984 76.51200103759766,128.83099365234375 C38.198001861572266,163.56900024414062 -13.02400016784668,189.83399963378906 -72.07599639892578,176.35800170898438 C-79.23600006103516,174.74600219726562 -86.36199951171875,172.55099487304688 -93.35399627685547,169.8209991455078 C-56.56700134277344,178.22000122070312 -18.658000946044922,168.04100036621094 6.927999973297119,145.2050018310547 C41.02000045776367,114.79199981689453 55.8129997253418,66.0250015258789 59.03499984741211,16.128000259399414 C61.29600143432617,-18.88599967956543 57.62200164794922,-57.457000732421875 36.95199966430664,-90.25499725341797 C11.210000038146973,-131.03399658203125 -36.36600112915039,-154.3730010986328 -79.99600219726562,-159.3249969482422 C-101.27200317382812,-161.77499389648438 -121.93199920654297,-160.57899475097656 -142.1540069580078,-157.48399353027344 C-99.2750015258789,-183.70799255371094 -43.41699981689453,-189.83399963378906 12.225000381469727,-164.4929962158203z"></path></g><g opacity="1" transform="matrix(1,0,0,1,176.83399963378906,231.58399963378906)"><path fill="rgb(255,255,255)" fill-opacity="1" d=" M118.96199798583984,-98.47699737548828 C139.63299560546875,-65.67900085449219 143.3070068359375,-27.107999801635742 141.0449981689453,7.906000137329102 C137.822998046875,57.801998138427734 123.02999877929688,106.56999969482422 88.93900299072266,136.98300170898438 C63.35300064086914,159.81900024414062 25.44300079345703,169.9980010986328 -11.343999862670898,161.5989990234375 C-53.858001708984375,145.1699981689453 -92.20700073242188,110.07099914550781 -114.17900085449219,68.08000183105469 C-138.79600524902344,20.979000091552734 -143.3070068359375,-32.91299819946289 -129.32400512695312,-77.20600128173828 C-117.4229965209961,-114.83699798583984 -92.51399993896484,-145.99000549316406 -60.143001556396484,-165.70599365234375 C-39.922000885009766,-168.80099487304688 -19.261999130249023,-169.9980010986328 2.015000104904175,-167.5469970703125 C45.64500045776367,-162.59500122070312 93.22100067138672,-139.25599670410156 118.96199798583984,-98.47699737548828z"></path><path stroke-linecap="round" stroke-linejoin="round" fill-opacity="0" stroke="rgb(19,6,57)" stroke-opacity="1" stroke-width="13.411" d=" M118.96199798583984,-98.47699737548828 C139.63299560546875,-65.67900085449219 143.3070068359375,-27.107999801635742 141.0449981689453,7.906000137329102 C137.822998046875,57.801998138427734 123.02999877929688,106.56999969482422 88.93900299072266,136.98300170898438 C63.35300064086914,159.81900024414062 25.44300079345703,169.9980010986328 -11.343999862670898,161.5989990234375 C-53.858001708984375,145.1699981689453 -92.20700073242188,110.07099914550781 -114.17900085449219,68.08000183105469 C-138.79600524902344,20.979000091552734 -143.3070068359375,-32.91299819946289 -129.32400512695312,-77.20600128173828 C-117.4229965209961,-114.83699798583984 -92.51399993896484,-145.99000549316406 -60.143001556396484,-165.70599365234375 C-39.922000885009766,-168.80099487304688 -19.261999130249023,-169.9980010986328 2.015000104904175,-167.5469970703125 C45.64500045776367,-162.59500122070312 93.22100067138672,-139.25599670410156 118.96199798583984,-98.47699737548828z"></path></g><g opacity="1" transform="matrix(1,0,0,1,131.2570037841797,174.13099670410156)"><path fill="rgb(124,176,219)" fill-opacity="1" d=" M47.86600112915039,7.747000217437744 C48.46799850463867,1.6200000047683716 48.03499984741211,-5.091000080108643 46.58300018310547,-11.803999900817871 C46.45899963378906,-12.484000205993652 46.297000885009766,-13.116999626159668 46.12799835205078,-13.79800033569336 C46.00400161743164,-14.479999542236328 45.7869987487793,-15.15999984741211 45.617000579833984,-15.842000007629395 C45.465999603271484,-16.424999237060547 45.31100082397461,-17.009000778198242 45.11199951171875,-17.593000411987305 C44.71699905395508,-19.003000259399414 44.22800064086914,-20.415000915527344 43.69200134277344,-21.826000213623047 C43.59400177001953,-22.118000030517578 43.49599838256836,-22.40999984741211 43.340999603271484,-22.750999450683594 C43.05099868774414,-23.57699966430664 42.71500015258789,-24.402999877929688 42.33100128173828,-25.231000900268555 C41.604000091552734,-26.93400001525879 40.792999267578125,-28.589000701904297 39.93600082397461,-30.243000030517578 C39.104000091552734,-31.75200080871582 38.24599838256836,-33.16299819946289 37.34000015258789,-34.57400131225586 C34.90399932861328,-38.27299880981445 32.064998626708984,-41.630001068115234 28.815000534057617,-44.45399856567383 C28.152000427246094,-45.03799819946289 27.506999969482422,-45.525001525878906 26.851999282836914,-46.06100082397461 C20.714000701904297,-50.73500061035156 13.295999526977539,-53.513999938964844 4.7179999351501465,-53.22999954223633 C-18.43400001525879,-52.472999572753906 -36.80799865722656,-30.799999237060547 -43.8390007019043,-10.52400016784668 C-45.25899887084961,-6.3429999351501465 -46.23400115966797,-2.257999897003174 -46.573001861572266,1.4859999418258667 C-48.46799850463867,22.445999145507812 -36.652000427246094,48.13600158691406 -13.168999671936035,51.999000549316406 C-3.799999952316284,53.51499938964844 5.677000045776367,52.30799865722656 14.26200008392334,49.00899887084961 C17.298999786376953,47.845001220703125 20.243999481201172,46.43600082397461 23.052000045776367,44.78499984741211 C25.43899917602539,43.37699890136719 27.70800018310547,41.821998596191406 29.849000930786133,40.07400131225586 C37.375,34.000999450683594 43.125999450683594,26.077999114990234 46.02799987792969,17.03499984741211 C46.40999984741211,15.819000244140625 46.78300094604492,14.555999755859375 46.999000549316406,13.194000244140625 C47.42399978637695,11.444000244140625 47.70000076293945,9.642999649047852 47.86600112915039,7.747000217437744z"></path></g><g opacity="1" transform="matrix(1,0,0,1,141.28500366210938,177.61500549316406)"><path fill="rgb(68,207,184)" fill-opacity="1" d=" M36.55500030517578,-15.288000106811523 C38.00699996948242,-8.574999809265137 38.43899917602539,-1.8630000352859497 37.83700180053711,4.263999938964844 C37.67100143432617,6.159999847412109 37.395999908447266,7.960000038146973 36.97100067138672,9.710000038146973 C36.755001068115234,11.071000099182129 36.38100051879883,12.336000442504883 35.999000549316406,13.552000045776367 C33.09700012207031,22.594999313354492 27.347000122070312,30.517000198364258 19.82200050354004,36.59000015258789 C17.68000030517578,38.3380012512207 15.41100025177002,39.893001556396484 13.02400016784668,41.30099868774414 C10.215999603271484,42.95199966430664 7.269999980926514,44.36000061035156 4.234000205993652,45.525001525878906 C-3.1410000324249268,48.3390007019043 -11.125,49.59600067138672 -19.173999786376953,48.95600128173828 C-32.189998626708984,39.119998931884766 -38.43899917602539,20.827999114990234 -37.027000427246094,5.119999885559082 C-36.6870002746582,1.375 -35.7599983215332,-2.7090001106262207 -34.29399871826172,-6.890999794006348 C-27.261999130249023,-27.163999557495117 -8.888999938964844,-48.8380012512207 14.263999938964844,-49.59600067138672 C15.145000457763672,-49.595001220703125 15.980999946594238,-49.59400177001953 16.825000762939453,-49.54499816894531 C17.479000091552734,-49.0099983215332 18.132999420166016,-48.474998474121094 18.78700065612793,-47.9379997253418 C22.03700065612793,-45.11399841308594 24.875,-41.75600051879883 27.31100082397461,-38.05799865722656 C28.216999053955078,-36.645999908447266 29.086000442504883,-35.18600082397461 29.909000396728516,-33.72600173950195 C30.764999389648438,-32.071998596191406 31.576000213623047,-30.417999267578125 32.303001403808594,-28.71500015258789 C32.6870002746582,-27.88800048828125 33.02199935913086,-27.059999465942383 33.3120002746582,-26.233999252319336 C33.46699905395508,-25.89299964904785 33.566001892089844,-25.60099983215332 33.66400146484375,-25.30900001525879 C34.20100021362305,-23.898000717163086 34.643001556396484,-22.48699951171875 35.08399963378906,-21.07699966430664 C35.284000396728516,-20.493000030517578 35.4370002746582,-19.909000396728516 35.5880012512207,-19.326000213623047 C35.757999420166016,-18.643999099731445 35.97600173950195,-17.964000701904297 36.099998474121094,-17.281999588012695 C36.26900100708008,-16.60099983215332 36.430999755859375,-15.968999862670898 36.55500030517578,-15.288000106811523z"></path></g><g opacity="1" transform="matrix(1,0,0,1,120.4489974975586,174.13099670410156)"><path fill="rgb(19,6,57)" fill-opacity="1" d=" M37.6609992980957,-46.06100082397461 C36.81700134277344,-46.11000061035156 35.97999954223633,-46.111000061035156 35.0989990234375,-46.11199951171875 C11.946000099182129,-45.354000091552734 -6.426000118255615,-23.68000030517578 -13.458000183105469,-3.4070000648498535 C-14.923999786376953,0.7749999761581421 -15.85200023651123,4.859000205993652 -16.191999435424805,8.604000091552734 C-17.60300064086914,24.312000274658203 -11.354999542236328,42.604000091552734 1.6610000133514404,52.439998626708984 C9.711000442504883,53.08000183105469 17.694000244140625,51.823001861572266 25.069000244140625,49.007999420166016 C16.482999801635742,52.30699920654297 7.006999969482422,53.513999938964844 -2.361999988555908,51.999000549316406 C-25.844999313354492,48.1349983215332 -37.6609992980957,22.445999145507812 -35.76599884033203,1.4859999418258667 C-35.42599868774414,-2.257999897003174 -34.45100021362305,-6.3420000076293945 -33.03099822998047,-10.52400016784668 C-26.000999450683594,-30.798999786376953 -7.625,-52.472999572753906 15.526000022888184,-53.22999954223633 C24.104000091552734,-53.513999938964844 31.52199935913086,-50.736000061035156 37.6609992980957,-46.06100082397461z"></path></g><g opacity="1" transform="matrix(1,0,0,1,146.97300720214844,162.8350067138672)"><path fill="rgb(200,255,238)" fill-opacity="1" d=" M3.8350000381469727,11.942000389099121 C10.904000282287598,9.774999618530273 18.788000106811523,4.486999988555908 16.545000076293945,-4.895999908447266 C14.588000297546387,-13.085000038146973 4.90500020980835,-18.395000457763672 -2.2109999656677246,-17.312999725341797 C-18.788999557495117,-14.789999961853027 -17.20800018310547,18.395000457763672 3.8350000381469727,11.942000389099121z"></path></g></g><g transform="matrix(1,0,0,1,1214.6800537109375,1366.3760986328125)" opacity="1" style="display: block;"><g opacity="1" transform="matrix(1,0,0,1,158.95700073242188,244.52200317382812)"><path fill="rgb(19,6,57)" fill-opacity="1" d=" M82.11199951171875,73.66100311279297 C43.016998291015625,80.56800079345703 2.5139999389648438,81.7760009765625 -38.79199981689453,79.09400177001953 C-51.26499938964844,78.22200012207031 -63.737998962402344,77.01399993896484 -76.34500122070312,75.53900146484375 C-80.23400115966797,54.21500015258789 -82.11199951171875,32.89099884033203 -81.97699737548828,11.902999877929688 C-81.97699737548828,11.902999877929688 -81.97699737548828,8.951000213623047 -81.97699737548828,8.951000213623047 C-81.70899963378906,-14.854999542236328 -81.50800323486328,-45.09600067138672 -70.71099853515625,-65.01200103759766 C-65.61599731445312,-74.46600341796875 -55.891998291015625,-81.7760009765625 -43.95600128173828,-80.97200012207031 C-5.330999851226807,-78.49099731445312 25.18000030517578,-28.466999053955078 42.882999420166016,1.5750000476837158 C56.89799880981445,25.312999725341797 70.04199981689453,49.25299835205078 82.11199951171875,73.66100311279297z"></path><path stroke-linecap="butt" stroke-linejoin="miter" fill-opacity="0" stroke-miterlimit="10" stroke="rgb(19,6,57)" stroke-opacity="1" stroke-width="13.411" d=" M82.11199951171875,73.66100311279297 C43.016998291015625,80.56800079345703 2.5139999389648438,81.7760009765625 -38.79199981689453,79.09400177001953 C-51.26499938964844,78.22200012207031 -63.737998962402344,77.01399993896484 -76.34500122070312,75.53900146484375 C-80.23400115966797,54.21500015258789 -82.11199951171875,32.89099884033203 -81.97699737548828,11.902999877929688 C-81.97699737548828,11.902999877929688 -81.97699737548828,8.951000213623047 -81.97699737548828,8.951000213623047 C-81.70899963378906,-14.854999542236328 -81.50800323486328,-45.09600067138672 -70.71099853515625,-65.01200103759766 C-65.61599731445312,-74.46600341796875 -55.891998291015625,-81.7760009765625 -43.95600128173828,-80.97200012207031 C-5.330999851226807,-78.49099731445312 25.18000030517578,-28.466999053955078 42.882999420166016,1.5750000476837158 C56.89799880981445,25.312999725341797 70.04199981689453,49.25299835205078 82.11199951171875,73.66100311279297z"></path></g><g opacity="1" transform="matrix(1,0,0,1,145.67999267578125,176.79400634765625)"><path fill="rgb(255,255,255)" fill-opacity="1" d=" M112.15299987792969,138.10299682617188 C106.58799743652344,139.3769989013672 101.02100372314453,140.4510040283203 95.38800048828125,141.38900756835938 C83.31800079345703,116.98100280761719 70.17400360107422,93.04100036621094 56.15999984741211,69.3030014038086 C38.457000732421875,39.26100158691406 7.946000099182129,-10.762999534606934 -30.679000854492188,-13.244000434875488 C-42.6150016784668,-14.04800033569336 -52.3380012512207,-6.738999843597412 -57.433998107910156,2.7149999141693115 C-68.23100280761719,22.631000518798828 -68.43199920654297,52.874000549316406 -68.69999694824219,76.67900085449219 C-68.69999694824219,76.67900085449219 -68.69999694824219,79.62999725341797 -68.69999694824219,79.62999725341797 C-68.83399963378906,100.61900329589844 -66.95600128173828,121.94300079345703 -63.06800079345703,143.26699829101562 C-70.10800170898438,142.46200561523438 -77.08200073242188,141.45700073242188 -84.12200164794922,140.51699829101562 C-100.35099792480469,79.16100311279297 -109.53700256347656,17.267000198364258 -111.41500091552734,-43.35200119018555 C-112.15299987792969,-66.95700073242188 -111.81800079345703,-90.4260025024414 -110.34200286865234,-113.56099700927734 C-109.6050033569336,-125.49800109863281 -104.64299774169922,-136.2259979248047 -93.51100158691406,-139.77999877929688 C-82.37899780273438,-143.26699829101562 -68.69999694824219,-139.9810028076172 -56.89799880981445,-133.4770050048828 C-45.09600067138672,-127.04000091552734 -34.90399932861328,-117.6520004272461 -25.246999740600586,-107.99600219726562 C43.08399963378906,-40.13399887084961 90.69499969482422,50.99700164794922 112.15299987792969,138.10299682617188z"></path><path stroke-linecap="butt" stroke-linejoin="miter" fill-opacity="0" stroke-miterlimit="10" stroke="rgb(19,6,57)" stroke-opacity="1" stroke-width="13.411" d=" M112.15299987792969,138.10299682617188 C106.58799743652344,139.3769989013672 101.02100372314453,140.4510040283203 95.38800048828125,141.38900756835938 C83.31800079345703,116.98100280761719 70.17400360107422,93.04100036621094 56.15999984741211,69.3030014038086 C38.457000732421875,39.26100158691406 7.946000099182129,-10.762999534606934 -30.679000854492188,-13.244000434875488 C-42.6150016784668,-14.04800033569336 -52.3380012512207,-6.738999843597412 -57.433998107910156,2.7149999141693115 C-68.23100280761719,22.631000518798828 -68.43199920654297,52.874000549316406 -68.69999694824219,76.67900085449219 C-68.69999694824219,76.67900085449219 -68.69999694824219,79.62999725341797 -68.69999694824219,79.62999725341797 C-68.83399963378906,100.61900329589844 -66.95600128173828,121.94300079345703 -63.06800079345703,143.26699829101562 C-70.10800170898438,142.46200561523438 -77.08200073242188,141.45700073242188 -84.12200164794922,140.51699829101562 C-100.35099792480469,79.16100311279297 -109.53700256347656,17.267000198364258 -111.41500091552734,-43.35200119018555 C-112.15299987792969,-66.95700073242188 -111.81800079345703,-90.4260025024414 -110.34200286865234,-113.56099700927734 C-109.6050033569336,-125.49800109863281 -104.64299774169922,-136.2259979248047 -93.51100158691406,-139.77999877929688 C-82.37899780273438,-143.26699829101562 -68.69999694824219,-139.9810028076172 -56.89799880981445,-133.4770050048828 C-45.09600067138672,-127.04000091552734 -34.90399932861328,-117.6520004272461 -25.246999740600586,-107.99600219726562 C43.08399963378906,-40.13399887084961 90.69499969482422,50.99700164794922 112.15299987792969,138.10299682617188z"></path></g></g><g transform="matrix(0.9843002557754517,-0.17650200426578522,0.17650200426578522,0.9843002557754517,1161.5802001953125,737.1083374023438)" opacity="1" style="display: block;"><g opacity="1" transform="matrix(1,0,0,1,303.9339904785156,234.7790069580078)"><path fill="rgb(19,6,57)" fill-opacity="1" d=" M3.0339999198913574,185.98300170898438 C0.6679999828338623,184.81300354003906 -1.652999997138977,183.63999938964844 -3.9779999256134033,182.3730010986328 C-49.34299850463867,157.74000549316406 -86.05999755859375,117.65599822998047 -106.7969970703125,70.37300109863281 C-105.88300323486328,67.73799896240234 -105.06099700927734,65.15599822998047 -104.28900146484375,62.53200149536133 C-119.88899993896484,23.46500015258789 -150.19500732421875,-12.060999870300293 -184.66700744628906,-36.15800094604492 C-194.37399291992188,-42.96500015258789 -198.4040069580078,-51.6870002746582 -193.5780029296875,-62.49599838256836 C-188.7050018310547,-73.30899810791016 -176.41400146484375,-79.44100189208984 -164.57400512695312,-79.68699645996094 C-152.6909942626953,-79.98300170898438 -141.22900390625,-75.34400177001953 -130.83900451660156,-69.68099975585938 C-106.6969985961914,-56.58399963378906 -85.93599700927734,-37.25600051879883 -71.10399627685547,-14.13700008392334 C-72.00700378417969,-15.501999855041504 -53.13999938964844,-45.040000915527344 -51.391998291015625,-48.685001373291016 C-36.84400177001953,-79.4020004272461 -27.61199951171875,-112.61000061035156 -27.822999954223633,-146.73800659179688 C-27.85300064086914,-154.06900024414062 -30.31999969482422,-164.32699584960938 -30.93400001525879,-173.9029998779297 C-31.5310001373291,-183.95700073242188 -30.079999923706055,-193.2949981689453 -21.5,-197.98199462890625 C-15.534000396728516,-201.25100708007812 -7.830999851226807,-200.02099609375 -2.059000015258789,-196.41900634765625 C3.760999917984009,-192.8209991455078 7.955999851226807,-187.2050018310547 11.640999794006348,-181.41299438476562 C38.875,-138.67300415039062 43.369998931884766,-80.41200256347656 20.099000930786133,-35.33100128173828 C29.22100067138672,-31.483999252319336 38.09700012207031,-27.097000122070312 46.76499938964844,-22.219999313354492 C65.01000213623047,-65.62000274658203 72.76499938964844,-113.34400177001953 69.10199737548828,-160.23300170898438 C68.30500030517578,-170.4149932861328 67.62200164794922,-182.36900329589844 75.4530029296875,-188.95599365234375 C82.56500244140625,-194.92300415039062 93.83499908447266,-193.08200073242188 100.91100311279297,-187.14199829101562 C108.03099822998047,-181.2519989013672 111.79299926757812,-172.2729949951172 114.68299865722656,-163.52000427246094 C133.572998046875,-106.44300079345703 124.88700103759766,-41.13100051879883 92.66799926757812,9.519000053405762 C97.97100067138672,13.914999961853027 103.19200134277344,18.506000518798828 108.13600158691406,23.211999893188477 C124.84600067138672,3.822000026702881 137.60699462890625,-18.96299934387207 145.5030059814453,-43.268001556396484 C148.95399475097656,-53.981998443603516 153.12399291992188,-66.697998046875 163.90499877929688,-69.87100219726562 C171.13900756835938,-71.98899841308594 179.18600463867188,-68.54399871826172 184.14500427246094,-62.933998107910156 C189.1540069580078,-57.27899932861328 191.5760040283203,-49.779998779296875 192.8470001220703,-42.391998291015625 C198.40499877929688,-10.156999588012695 181.75399780273438,29.42099952697754 168.61199951171875,58.422000885009766 C153.5679931640625,91.60199737548828 133.35699462890625,122.37699890136719 109.74400329589844,150.052001953125 C94.67400360107422,167.66299438476562 78.80699920654297,184.8040008544922 62.06800079345703,201.00599670410156 C41.94300079345703,201.25100708007812 21.514999389648438,195.04200744628906 3.0339999198913574,185.98300170898438z"></path><path stroke-linecap="butt" stroke-linejoin="miter" fill-opacity="0" stroke-miterlimit="10" stroke="rgb(19,6,57)" stroke-opacity="1" stroke-width="13.411" d=" M3.0339999198913574,185.98300170898438 C0.6679999828338623,184.81300354003906 -1.652999997138977,183.63999938964844 -3.9779999256134033,182.3730010986328 C-49.34299850463867,157.74000549316406 -86.05999755859375,117.65599822998047 -106.7969970703125,70.37300109863281 C-105.88300323486328,67.73799896240234 -105.06099700927734,65.15599822998047 -104.28900146484375,62.53200149536133 C-119.88899993896484,23.46500015258789 -150.19500732421875,-12.060999870300293 -184.66700744628906,-36.15800094604492 C-194.37399291992188,-42.96500015258789 -198.4040069580078,-51.6870002746582 -193.5780029296875,-62.49599838256836 C-188.7050018310547,-73.30899810791016 -176.41400146484375,-79.44100189208984 -164.57400512695312,-79.68699645996094 C-152.6909942626953,-79.98300170898438 -141.22900390625,-75.34400177001953 -130.83900451660156,-69.68099975585938 C-106.6969985961914,-56.58399963378906 -85.93599700927734,-37.25600051879883 -71.10399627685547,-14.13700008392334 C-72.00700378417969,-15.501999855041504 -53.13999938964844,-45.040000915527344 -51.391998291015625,-48.685001373291016 C-36.84400177001953,-79.4020004272461 -27.61199951171875,-112.61000061035156 -27.822999954223633,-146.73800659179688 C-27.85300064086914,-154.06900024414062 -30.31999969482422,-164.32699584960938 -30.93400001525879,-173.9029998779297 C-31.5310001373291,-183.95700073242188 -30.079999923706055,-193.2949981689453 -21.5,-197.98199462890625 C-15.534000396728516,-201.25100708007812 -7.830999851226807,-200.02099609375 -2.059000015258789,-196.41900634765625 C3.760999917984009,-192.8209991455078 7.955999851226807,-187.2050018310547 11.640999794006348,-181.41299438476562 C38.875,-138.67300415039062 43.369998931884766,-80.41200256347656 20.099000930786133,-35.33100128173828 C29.22100067138672,-31.483999252319336 38.09700012207031,-27.097000122070312 46.76499938964844,-22.219999313354492 C65.01000213623047,-65.62000274658203 72.76499938964844,-113.34400177001953 69.10199737548828,-160.23300170898438 C68.30500030517578,-170.4149932861328 67.62200164794922,-182.36900329589844 75.4530029296875,-188.95599365234375 C82.56500244140625,-194.92300415039062 93.83499908447266,-193.08200073242188 100.91100311279297,-187.14199829101562 C108.03099822998047,-181.2519989013672 111.79299926757812,-172.2729949951172 114.68299865722656,-163.52000427246094 C133.572998046875,-106.44300079345703 124.88700103759766,-41.13100051879883 92.66799926757812,9.519000053405762 C97.97100067138672,13.914999961853027 103.19200134277344,18.506000518798828 108.13600158691406,23.211999893188477 C124.84600067138672,3.822000026702881 137.60699462890625,-18.96299934387207 145.5030059814453,-43.268001556396484 C148.95399475097656,-53.981998443603516 153.12399291992188,-66.697998046875 163.90499877929688,-69.87100219726562 C171.13900756835938,-71.98899841308594 179.18600463867188,-68.54399871826172 184.14500427246094,-62.933998107910156 C189.1540069580078,-57.27899932861328 191.5760040283203,-49.779998779296875 192.8470001220703,-42.391998291015625 C198.40499877929688,-10.156999588012695 181.75399780273438,29.42099952697754 168.61199951171875,58.422000885009766 C153.5679931640625,91.60199737548828 133.35699462890625,122.37699890136719 109.74400329589844,150.052001953125 C94.67400360107422,167.66299438476562 78.80699920654297,184.8040008544922 62.06800079345703,201.00599670410156 C41.94300079345703,201.25100708007812 21.514999389648438,195.04200744628906 3.0339999198913574,185.98300170898438z"></path></g><g opacity="1" transform="matrix(1,0,0,1,199.76100158691406,445.6369934082031)"><path fill="rgb(255,255,255)" fill-opacity="1" d=" M166.23399353027344,-9.824000358581543 C130.5590057373047,24.8439998626709 90.86199951171875,55.4900016784668 46.470001220703125,78.15599822998047 C-2.2799999713897705,103.03299713134766 -88.4489974975586,140.51800537109375 -140.01499938964844,106.72200012207031 C-150.8780059814453,99.68099975585938 -159.25999450683594,88.54900360107422 -163.01499938964844,76.34500122070312 C-166.0330047607422,66.75499725341797 -166.23399353027344,56.428001403808594 -162.47900390625,47.040000915527344 C-155.57200622558594,29.336999893188477 -138.0030059814453,18.742000579833984 -122.24500274658203,8.147000312805176 C-92.47100067138672,-11.970000267028809 -65.37999725341797,-35.974998474121094 -43.250999450683594,-64.40799713134766 C-25.816999435424805,-86.80400085449219 -11.736000061035156,-113.427001953125 -2.615999937057495,-140.51699829101562 C18.104999542236328,-93.17500305175781 54.85200119018555,-53.141998291015625 100.18199920654297,-28.465999603271484 C102.52999877929688,-27.19099998474121 104.80899810791016,-26.052000045776367 107.2239990234375,-24.844999313354492 C125.66500091552734,-15.793000221252441 146.11700439453125,-9.623000144958496 166.23399353027344,-9.824000358581543z"></path><path stroke-linecap="round" stroke-linejoin="round" fill-opacity="0" stroke="rgb(19,6,57)" stroke-opacity="1" stroke-width="13.411" d=" M166.23399353027344,-9.824000358581543 C130.5590057373047,24.8439998626709 90.86199951171875,55.4900016784668 46.470001220703125,78.15599822998047 C-2.2799999713897705,103.03299713134766 -88.4489974975586,140.51800537109375 -140.01499938964844,106.72200012207031 C-150.8780059814453,99.68099975585938 -159.25999450683594,88.54900360107422 -163.01499938964844,76.34500122070312 C-166.0330047607422,66.75499725341797 -166.23399353027344,56.428001403808594 -162.47900390625,47.040000915527344 C-155.57200622558594,29.336999893188477 -138.0030059814453,18.742000579833984 -122.24500274658203,8.147000312805176 C-92.47100067138672,-11.970000267028809 -65.37999725341797,-35.974998474121094 -43.250999450683594,-64.40799713134766 C-25.816999435424805,-86.80400085449219 -11.736000061035156,-113.427001953125 -2.615999937057495,-140.51699829101562 C18.104999542236328,-93.17500305175781 54.85200119018555,-53.141998291015625 100.18199920654297,-28.465999603271484 C102.52999877929688,-27.19099998474121 104.80899810791016,-26.052000045776367 107.2239990234375,-24.844999313354492 C125.66500091552734,-15.793000221252441 146.11700439453125,-9.623000144958496 166.23399353027344,-9.824000358581543z"></path></g></g><g transform="matrix(0.9899570941925049,0,0,0.9899570941925049,172.99546813964844,449.4176940917969)" opacity="1" style="display: block;"><g opacity="1" transform="matrix(1,0,0,1,263.7229919433594,109.29000091552734)"><path fill="rgb(0,169,157)" fill-opacity="1" d=" M-241.4340057373047,109.04000091552734 C-253.47799682617188,42.21099853515625 -260.8909912109375,-26.326000213623047 -263.4729919433594,-94.66500091552734 C-263.4729919433594,-94.66500091552734 -234.98899841308594,-95.74099731445312 -234.98899841308594,-95.74099731445312 C-233.73399353027344,-62.45800018310547 -231.3070068359375,-29.1299991607666 -227.73800659179688,4.019000053405762 C-227.73800659179688,4.019000053405762 -181.12100219726562,1.5049999952316284 -181.12100219726562,1.5049999952316284 C-183.4250030517578,-30.229000091552734 -184.5800018310547,-62.05400085449219 -184.572998046875,-93.73100280761719 C-184.572998046875,-93.73100280761719 -156.06900024414062,-93.72599792480469 -156.06900024414062,-93.72599792480469 C-156.08299255371094,-33.09400177001953 -151.74000549316406,28.082000732421875 -143.16700744628906,88.10399627685547 C-143.16700744628906,88.10399627685547 -171.38299560546875,92.13600158691406 -171.38299560546875,92.13600158691406 C-174.33099365234375,71.51000213623047 -176.78799438476562,50.749000549316406 -178.7530059814453,29.922000885009766 C-178.7530059814453,29.922000885009766 -224.39500427246094,32.382999420166016 -224.39500427246094,32.382999420166016 C-221.322998046875,56.4109992980957 -217.64999389648438,80.30799865722656 -213.3820037841797,103.98400115966797 C-213.3820037841797,103.98400115966797 -241.4340057373047,109.04000091552734 -241.4340057373047,109.04000091552734z M-111.36799621582031,78.72599792480469 C-111.36799621582031,78.72599792480469 -125.24400329589844,78.72599792480469 -125.24400329589844,78.72599792480469 C-125.24400329589844,78.72599792480469 -125.61499786376953,64.8550033569336 -125.61499786376953,64.8550033569336 C-126.08899688720703,47.159000396728516 -127.3479995727539,29.631999969482422 -128.6820068359375,11.072999954223633 C-130.70199584960938,-17.052000045776367 -132.79400634765625,-46.13399887084961 -132.14700317382812,-77.4469985961914 C-132.14700317382812,-77.4469985961914 -131.82899475097656,-92.7959976196289 -131.82899475097656,-92.7959976196289 C-131.82899475097656,-92.7959976196289 -116.5479965209961,-91.33999633789062 -116.5479965209961,-91.33999633789062 C-92.81400299072266,-89.0770034790039 -66.23400115966797,-87.97100067138672 -45.42300033569336,-88.37000274658203 C-45.42300033569336,-88.37000274658203 -44.875,-59.87099838256836 -44.875,-59.87099838256836 C-62.224998474121094,-59.547000885009766 -83.37300109863281,-60.20100021362305 -103.74800109863281,-61.672000885009766 C-103.64700317382812,-47.196998596191406 -103.01300048828125,-33.07400131225586 -102.1760025024414,-19.229999542236328 C-102.1760025024414,-19.229999542236328 -52.4119987487793,-21.739999771118164 -52.4119987487793,-21.739999771118164 C-52.4119987487793,-21.739999771118164 -50.97800064086914,6.72599983215332 -50.97800064086914,6.72599983215332 C-50.97800064086914,6.72599983215332 -100.23899841308594,9.210000038146973 -100.23899841308594,9.210000038146973 C-99.23699951171875,23.163000106811523 -98.2760009765625,36.540000915527344 -97.64900207519531,49.974998474121094 C-73.6050033569336,49.14699935913086 -49.80699920654297,46.41899871826172 -36.5359992980957,44.680999755859375 C-36.5359992980957,44.680999755859375 -32.83399963378906,72.94400024414062 -32.83399963378906,72.94400024414062 C-49.32699966430664,75.10299682617188 -81.45700073242188,78.72599792480469 -111.36799621582031,78.72599792480469z M-3.2660000324249268,74.56300354003906 C-3.934000015258789,74.56300354003906 -4.605000019073486,74.55799865722656 -5.2779998779296875,74.5530014038086 C-5.2779998779296875,74.5530014038086 -18.584999084472656,74.43199920654297 -18.584999084472656,74.43199920654297 C-18.584999084472656,74.43199920654297 -28.444000244140625,-91.02100372314453 -28.444000244140625,-91.02100372314453 C-28.444000244140625,-91.02100372314453 0.008999999612569809,-92.71499633789062 0.008999999612569809,-92.71499633789062 C0.008999999612569809,-92.71499633789062 8.260000228881836,45.74399948120117 8.260000228881836,45.74399948120117 C16.420000076293945,45.31399917602539 24.47100067138672,44.492000579833984 33.308998107910156,43.5890007019043 C33.308998107910156,43.5890007019043 36.67900085449219,43.24599838256836 36.67900085449219,43.24599838256836 C36.67900085449219,43.24599838256836 39.555999755859375,71.6050033569336 39.555999755859375,71.6050033569336 C39.555999755859375,71.6050033569336 36.20399856567383,71.94599914550781 36.20399856567383,71.94599914550781 C23.045000076293945,73.28900146484375 10.581999778747559,74.56300354003906 -3.2660000324249268,74.56300354003906z M55.236000061035156,69.06999969482422 C55.236000061035156,69.06999969482422 55.22700119018555,54.25400161743164 55.22700119018555,54.25400161743164 C55.19499969482422,5.372000217437744 51.875,-43.992000579833984 45.36199951171875,-92.46499633789062 C45.36199951171875,-92.46499633789062 73.61000061035156,-96.25900268554688 73.61000061035156,-96.25900268554688 C79.61699676513672,-51.555999755859375 82.97599792480469,-6.111000061035156 83.61599731445312,39.04899978637695 C85.66200256347656,38.880001068115234 87.73400115966797,38.70199966430664 89.83799743652344,38.52000045776367 C97.08399963378906,37.89400100708008 104.57499694824219,37.24700164794922 112.08499908447266,36.95199966430664 C112.08499908447266,36.95199966430664 113.20700073242188,65.43299865722656 113.20700073242188,65.43299865722656 C106.36199951171875,65.7040023803711 99.5260009765625,66.29299926757812 92.28700256347656,66.91699981689453 C85.04100036621094,67.54299926757812 77.5479965209961,68.19100189208984 70.04000091552734,68.48500061035156 C70.04000091552734,68.48500061035156 55.236000061035156,69.06999969482422 55.236000061035156,69.06999969482422z M125.75800323486328,64.625 C125.75800323486328,64.625 125.2969970703125,49.2140007019043 125.2969970703125,49.2140007019043 C123.94200134277344,4.111999988555908 120.81300354003906,-41.49300003051758 116,-86.33399963378906 C116,-86.33399963378906 114.38099670410156,-101.41300201416016 114.38099670410156,-101.41300201416016 C114.38099670410156,-101.41300201416016 129.52999877929688,-102.09200286865234 129.52999877929688,-102.09200286865234 C151.406005859375,-103.06900024414062 171.22300720214844,-102.38700103759766 190.1179962158203,-99.99099731445312 C190.1179962158203,-99.99099731445312 201.0989990234375,-98.5989990234375 201.0989990234375,-98.5989990234375 C201.0989990234375,-98.5989990234375 202.4669952392578,-87.61599731445312 202.4669952392578,-87.61599731445312 C208.05499267578125,-42.77199935913086 213.11199951171875,1.2450000047683716 213.61000061035156,46.680999755859375 C213.61000061035156,46.680999755859375 213.7729949951172,61.52399826049805 213.7729949951172,61.52399826049805 C213.7729949951172,61.52399826049805 198.9340057373047,61.08100128173828 198.9340057373047,61.08100128173828 C176.85400390625,60.426998138427734 159.01400756835938,61.00199890136719 141.08399963378906,62.95600128173828 C141.08399963378906,62.95600128173828 125.75800323486328,64.625 125.75800323486328,64.625z M145.9219970703125,-74.01399993896484 C149.427001953125,-38.430999755859375 151.89100646972656,-2.4660000801086426 153.26800537109375,33.27399826049805 C163.28500366210938,32.59400177001953 173.69700622558594,32.297000885009766 184.78500366210938,32.32899856567383 C183.63699340820312,-2.8540000915527344 179.87899780273438,-37.6349983215332 175.56700134277344,-72.88200378417969 C166.07699584960938,-73.7030029296875 156.25799560546875,-74.0770034790039 145.9219970703125,-74.01399993896484z M260.4100036621094,64.47000122070312 C260.4100036621094,64.47000122070312 232.1020050048828,61.137001037597656 232.1020050048828,61.137001037597656 C233.2949981689453,51.0099983215332 234.12899780273438,40.67599868774414 234.57899475097656,30.42300033569336 C234.57899475097656,30.42300033569336 263.05499267578125,31.674999237060547 263.05499267578125,31.674999237060547 C262.57501220703125,42.61899948120117 261.6839904785156,53.65399932861328 260.4100036621094,64.47000122070312z M234.968994140625,8.28499984741211 C234.65199279785156,-28.684999465942383 229.4759979248047,-65.61100006103516 219.58999633789062,-101.46399688720703 C219.58999633789062,-101.46399688720703 247.0679931640625,-109.04000091552734 247.0679931640625,-109.04000091552734 C257.6130065917969,-70.79900360107422 263.1319885253906,-31.408000946044922 263.4729919433594,8.038999557495117 C263.4729919433594,8.038999557495117 234.968994140625,8.28499984741211 234.968994140625,8.28499984741211z"></path></g></g><g transform="matrix(0.9899570941925049,0,0,0.9899570941925049,449.4716796875,658.744140625)" opacity="1" style="display: block;"><g opacity="1" transform="matrix(1,0,0,1,64.26699829101562,76.7770004272461)"><path fill="rgb(0,169,157)" fill-opacity="1" d=" M63.70600128173828,76.5260009765625 C28.624000549316406,69.66200256347656 -3.9230000972747803,50.4900016784668 -26.93400001525879,23.135000228881836 C-49.94499969482422,-4.218999862670898 -63.26100158691406,-39.56800079345703 -64.01699829101562,-75.30599975585938 C-58.025001525878906,-75.9800033569336 -57.10900115966797,-75.85199737548828 -51.11800003051758,-76.5260009765625 C-51.327999114990234,-43.970001220703125 -39.4640007019043,-8.857999801635742 -18.764999389648438,16.273000717163086 C1.934999942779541,41.40399932861328 31.628000259399414,58.96500015258789 63.62300109863281,64.99700164794922 C63.3129997253418,68.66500091552734 64.01699829101562,72.85800170898438 63.70600128173828,76.5260009765625z"></path></g></g><g transform="matrix(0.9997946619987488,0.020263204351067543,-0.020263204351067543,0.9997946619987488,801.5036010742188,766.9306030273438)" opacity="1" style="display: block;"><g opacity="1" transform="matrix(1,0,0,1,32.3390007019043,76.73400115966797)"><path fill="rgb(200,255,238)" fill-opacity="1" d=" M32.09000015258789,68.50199890136719 C20.261999130249023,70.06999969482422 8.479999542236328,72.73100280761719 -2.921999931335449,76.48400115966797 C-12.041999816894531,56.34199905395508 -21.684999465942383,34.77399826049805 -26.67300033569336,13.206999778747559 C-31.61400032043457,-8.359999656677246 -32.09000015258789,-31.542999267578125 -23.965999603271484,-52.1609992980957 C-20.26099967956543,-61.47100067138672 -14.274999618530273,-70.68699645996094 -5.01200008392334,-74.43900299072266 C0.023000000044703484,-76.48300170898438 6.008999824523926,-76.197998046875 10.902000427246094,-74.01200103759766 C15.178000450134277,-26.174999237060547 19.97599983215332,22.32699966430664 32.09000015258789,68.50199890136719z"></path></g></g><g transform="matrix(0.9997946619987488,0.020263204351067543,-0.020263204351067543,0.9997946619987488,900.5076904296875,934.2901000976562)" opacity="1" style="display: block;"><g opacity="1" transform="matrix(1,0,0,1,46.23500061035156,41.53200149536133)"><path fill="rgb(68,207,184)" fill-opacity="1" d=" M45.98500061035156,-41.28200149536133 C37.71900177001953,-10.451000213623047 20.52199935913086,18.95400047302246 -2.2809998989105225,41.28200149536133 C-19.239999771118164,29.64299964904785 -34.15700149536133,9.310999870300293 -45.98500061035156,-7.459000110626221 C-13.253999710083008,-11.401000022888184 18.527000427246094,-23.041000366210938 45.98500061035156,-41.28200149536133z"></path></g></g><g transform="matrix(0.9997946619987488,0.020263204351067543,-0.020263204351067543,0.9997946619987488,1006.3477783203125,684.5574951171875)" opacity="1" style="display: block;"><g opacity="1" transform="matrix(1,0,0,1,49.560001373291016,97.27999877929688)"><path fill="rgb(200,255,238)" fill-opacity="1" d=" M49.31100082397461,-28.621999740600586 C49.263999938964844,-26.76799964904785 49.2140007019043,-24.916000366210938 49.119998931884766,-23.06399917602539 C47.69499969482422,12.517999649047852 43.13399887084961,50.37900161743164 41.042999267578125,86.43599700927734 C19.09600067138672,86.38800048828125 -2.8989999294281006,89.95099639892578 -23.70599937438965,97.02999877929688 C-34.15700149536133,69.09600067138672 -43.04100036621094,39.737998962402344 -46.17499923706055,10.095000267028809 C-49.31100082397461,-19.54800033569336 -44.323001861572266,-51.23400115966797 -26.270999908447266,-74.93900299072266 C-15.677000045776367,-88.90599822998047 -1.2350000143051147,-97.02999877929688 14.774999618530273,-87.38600158691406 C29.167999267578125,-78.64399719238281 39.2869987487793,-63.632999420166016 44.654998779296875,-47.909000396728516 C46.79199981689453,-41.63800048828125 48.26599884033203,-35.178001403808594 49.31100082397461,-28.621999740600586z"></path></g></g></g></svg>